<?xml version="1.0" encoding="UTF-8" standalone="no"?>
<svg
   xmlns:dc="http://purl.org/dc/elements/1.1/"
   xmlns:cc="http://creativecommons.org/ns#"
   xmlns:rdf="http://www.w3.org/1999/02/22-rdf-syntax-ns#"
   xmlns:svg="http://www.w3.org/2000/svg"
   xmlns="http://www.w3.org/2000/svg"
   xmlns:xlink="http://www.w3.org/1999/xlink"
   xmlns:sodipodi="http://sodipodi.sourceforge.net/DTD/sodipodi-0.dtd"
   xmlns:inkscape="http://www.inkscape.org/namespaces/inkscape"
   width="210mm"
   height="297mm"
   viewBox="0 0 210 297"
   version="1.1"
   id="svg8"
   inkscape:version="1.0 (4035a4fb49, 2020-05-01)"
   sodipodi:docname="BieneSchlaffend.svg"
   inkscape:export-filename="C:\Users\rschneider\Documents\rainer\ogv\blühflächen\BieneSchlaffend.png"
   inkscape:export-xdpi="96"
   inkscape:export-ydpi="96">
  <defs
     id="defs2">
    <linearGradient
       id="linearGradient975"
       inkscape:collect="always">
      <stop
         id="stop971"
         offset="0"
         style="stop-color:#d5f6ff;stop-opacity:1;" />
      <stop
         id="stop973"
         offset="1"
         style="stop-color:#ffffff;stop-opacity:1" />
    </linearGradient>
    <linearGradient
       inkscape:collect="always"
       id="linearGradient963">
      <stop
         style="stop-color:#d5f6ff;stop-opacity:1;"
         offset="0"
         id="stop959" />
      <stop
         style="stop-color:#d5f6ff;stop-opacity:0;"
         offset="1"
         id="stop961" />
    </linearGradient>
    <linearGradient
       inkscape:collect="always"
       id="linearGradient917">
      <stop
         id="stop915"
         offset="0"
         style="stop-color:#ffdd55;stop-opacity:1" />
      <stop
         id="stop913"
         offset="1"
         style="stop-color:#d4aa00;stop-opacity:1" />
    </linearGradient>
    <radialGradient
       inkscape:collect="always"
       xlink:href="#linearGradient917"
       id="radialGradient919"
       cx="96.296135"
       cy="82.471718"
       fx="96.296135"
       fy="82.471718"
       r="28.395268"
       gradientTransform="matrix(1.2262984,-0.84027207,0.66716376,0.97386807,-78.048932,85.312288)"
       gradientUnits="userSpaceOnUse" />
    <linearGradient
       inkscape:collect="always"
       xlink:href="#linearGradient975"
       id="linearGradient965"
       x1="73.038124"
       y1="52.7467"
       x2="69.198433"
       y2="59.996384"
       gradientUnits="userSpaceOnUse"
       gradientTransform="translate(5.1115324,-1.6704343)" />
    <linearGradient
       inkscape:collect="always"
       xlink:href="#linearGradient963"
       id="linearGradient969"
       gradientUnits="userSpaceOnUse"
       gradientTransform="translate(15.969354,-0.80180862)"
       x1="73.038124"
       y1="52.7467"
       x2="69.198433"
       y2="59.996384" />
  </defs>
  <sodipodi:namedview
     id="base"
     pagecolor="#ffffff"
     bordercolor="#666666"
     borderopacity="1.0"
     inkscape:pageopacity="0.0"
     inkscape:pageshadow="2"
     inkscape:zoom="3.0288492"
     inkscape:cx="373.07899"
     inkscape:cy="273.23929"
     inkscape:document-units="mm"
     inkscape:current-layer="layer1"
     inkscape:document-rotation="0"
     showgrid="false"
     inkscape:window-width="3078"
     inkscape:window-height="1557"
     inkscape:window-x="1285"
     inkscape:window-y="202"
     inkscape:window-maximized="0" />
  <metadata
     id="metadata5">
    <rdf:RDF>
      <cc:Work
         rdf:about="">
        <dc:format>image/svg+xml</dc:format>
        <dc:type
           rdf:resource="http://purl.org/dc/dcmitype/StillImage" />
        <dc:title></dc:title>
      </cc:Work>
    </rdf:RDF>
  </metadata>
  <g
     inkscape:label="Ebene 1"
     inkscape:groupmode="layer"
     id="layer1"
     style="display:inline">
    <path
       style="opacity:0.998;fill:none;stroke-width:0.295;stroke-opacity:0.124197"
       id="path10"
       sodipodi:type="arc"
       sodipodi:cx="71.059525"
       sodipodi:cy="88.068451"
       sodipodi:rx="26.836309"
       sodipodi:ry="9.0714283"
       sodipodi:start="0"
       sodipodi:end="6.1188451"
       sodipodi:open="true"
       sodipodi:arc-type="arc"
       d="M 97.895834,88.068451 A 26.836309,9.0714283 0 0 1 72.161786,97.132224 26.836309,9.0714283 0 0 1 44.313763,88.813013 26.836309,9.0714283 0 0 1 67.76018,79.065841 26.836309,9.0714283 0 0 1 97.534255,86.584352" />
    <g
       id="g941"
       transform="translate(5.4806547,-0.85044644)">
      <circle
         style="opacity:1;fill:#d4aa00;fill-opacity:0.989822;stroke:#000000;stroke-width:1.095;stroke-miterlimit:4;stroke-dasharray:none;stroke-opacity:1"
         id="circle937"
         cx="114.02615"
         cy="71.143044"
         r="4.8664432" />
      <path
         style="fill:none;stroke:#000000;stroke-width:0.833794;stroke-linecap:butt;stroke-linejoin:miter;stroke-miterlimit:4;stroke-dasharray:none;stroke-opacity:1"
         d="m 109.45084,70.213194 c 5.59295,5.337263 7.93488,1.99029 9.17544,0.212715"
         id="path939"
         sodipodi:nodetypes="cc" />
    </g>
    <path
       sodipodi:nodetypes="sssccs"
       id="path967"
       d="M 91.506405,72.329814 C 86.413863,69.146543 81.247327,60.451613 80.214267,53.086409 c -0.322651,-2.300341 -0.781576,-5.082953 1.102486,-6.314243 6.013761,-3.93017 19.143177,12.015992 20.178847,21.849283 l -9.120569,3.274052 c 0,0 -0.594124,0.6059 -0.868626,0.434313 z"
       style="fill:url(#linearGradient969);fill-opacity:1;stroke:#000000;stroke-width:0.665;stroke-linecap:butt;stroke-linejoin:miter;stroke-miterlimit:4;stroke-dasharray:none;stroke-opacity:1" />
    <path
       style="fill:url(#linearGradient965);fill-opacity:1;stroke:#000000;stroke-width:0.665;stroke-linecap:butt;stroke-linejoin:miter;stroke-miterlimit:4;stroke-dasharray:none;stroke-opacity:1"
       d="M 80.648583,71.461188 C 75.556041,68.277917 70.389505,59.582987 69.356445,52.217783 69.033794,49.917442 68.574869,47.13483 70.458931,45.90354 76.472692,41.97337 89.60211,57.919532 90.637779,67.752823 l -9.12057,3.274052 c 0,0 -0.594124,0.6059 -0.868626,0.434313 z"
       id="path949"
       sodipodi:nodetypes="sssccs" />
    <ellipse
       style="opacity:0.98;fill:url(#radialGradient919);fill-opacity:1;stroke:#000000;stroke-width:1.943;stroke-miterlimit:4;stroke-dasharray:none;stroke-opacity:1"
       id="path903"
       cx="97.42337"
       cy="83.296501"
       rx="26.723993"
       ry="16.187908" />
    <g
       id="g935"
       transform="translate(-0.04724702,-1.2756696)">
      <circle
         r="4.8664432"
         cy="71.143044"
         cx="114.02615"
         id="path923"
         style="opacity:1;fill:#d4aa00;fill-opacity:0.989822;stroke:#000000;stroke-width:1.095;stroke-miterlimit:4;stroke-dasharray:none;stroke-opacity:1" />
      <path
         sodipodi:nodetypes="cc"
         id="path929"
         d="m 109.45084,70.213194 c 5.59295,5.337263 7.93488,1.99029 9.17544,0.212715"
         style="fill:none;stroke:#000000;stroke-width:0.833794;stroke-linecap:butt;stroke-linejoin:miter;stroke-miterlimit:4;stroke-dasharray:none;stroke-opacity:1" />
    </g>
    <path
       style="fill:#282312;fill-opacity:0.989822;stroke:#000000;stroke-width:0.264583px;stroke-linecap:butt;stroke-linejoin:miter;stroke-opacity:1"
       d="m 113.81808,81.926339 c 1.93156,0.750809 3.78519,0.878148 5.5279,0.118116 -2.67121,2.574334 -3.69972,2.718644 -5.5279,-0.118116 z"
       id="path943"
       sodipodi:nodetypes="ccc" />
    <circle
       id="path945"
       style="fill:#282312;stroke:#000000;stroke-width:0.264583"
       cx="76.906807"
       cy="72.563675"
       r="0.06484817" />
    <path
       style="fill:#000000;stroke:#000000;stroke-width:0.264583px;stroke-linecap:butt;stroke-linejoin:miter;stroke-opacity:1"
       d="m 74.969102,74.701833 5.679479,-3.240646 c 0,0 -2.275207,7.884509 -2.204976,11.926903 0.07528,4.333272 2.806329,12.695304 2.806329,12.695304 l -4.543581,-2.539061 c 0,0 -2.192036,-5.780032 -2.405425,-8.819893 -0.223238,-3.180172 1.202712,-9.488069 1.202712,-9.488069 z"
       id="path979"
       sodipodi:nodetypes="ccsccscc" />
    <path
       style="fill:#000000;stroke:#000000;stroke-width:0.257451px;stroke-linecap:butt;stroke-linejoin:miter;stroke-opacity:1"
       d="m 87.835414,69.042445 c 0,0 -3.399862,9.031571 -3.515597,13.765009 -0.127406,5.210799 3.124975,15.323311 3.124975,15.323311 0,0 6.626973,2.548615 5.989534,0.649293 -3.132416,-9.333407 -5.213525,-11.830517 -4.557254,-16.751756 0.736301,-5.521372 5.20829,-14.414301 5.20829,-14.414301 z"
       id="path981"
       sodipodi:nodetypes="cscsscc" />
    <path
       style="fill:#000000;stroke:#000000;stroke-width:0.264583px;stroke-linecap:butt;stroke-linejoin:miter;stroke-opacity:1"
       d="m 99.023359,67.35192 c 0,0 -4.353093,10.038896 -4.409948,15.367997 -0.06144,5.758558 4.409948,16.704347 4.409948,16.704347 l 6.013561,-0.267272 c 0,0 -3.97274,-10.600305 -4.54358,-16.169805 -0.48943,-4.775204 4.07586,-14.365738 4.07586,-14.365738 z"
       id="path983"
       sodipodi:nodetypes="csccscc" />
    <path
       style="opacity:1;fill:#000000;fill-opacity:0.989822;stroke:#000000;stroke-width:0.965;stroke-linecap:round;stroke-miterlimit:4;stroke-dasharray:none;stroke-opacity:1"
       id="path985"
       d="m 82.366012,97.807986 c -0.08312,0.625435 -0.298672,1.232143 -0.626162,1.770107 -0.281155,0.467457 -0.708981,0.766107 -1.157187,1.054367 3.469986,-1.864243 1.561756,-0.920277 1.168511,-0.695017 -0.413687,0.236967 -1.759535,0.905887 -2.397792,1.441697 -0.224576,0.16876 -0.40305,0.38161 -0.64385,0.53081 0.0913,-0.029 -0.318254,0.18857 -0.238414,0.1419 0.519097,-0.30344 2.080678,-1.2064 1.560703,-0.90446 -1.987478,1.15408 -1.287674,0.63451 -2.050891,1.25546 -0.250436,0.19249 -0.375266,0.47877 -0.462568,0.77333 0,0 1.798338,-0.84262 1.798338,-0.84262 v 0 c 0.108096,-0.27263 0.264798,-0.5019 0.508127,-0.67262 0.0725,-0.0592 0.306565,-0.21383 0.22506,-0.16784 -0.523886,0.2956 -2.090277,1.19164 -1.565629,0.8974 0.6922,-0.38821 1.420918,-0.7482 2.074502,-1.21037 0.216517,-0.17448 0.408861,-0.376 0.636101,-0.53744 0.151416,-0.10946 0.130191,-0.0986 0.29577,-0.19896 0.06356,-0.0385 0.256796,-0.14973 0.192264,-0.11287 -0.489182,0.27937 -0.979638,0.55656 -1.466223,0.84043 -0.08341,0.0487 0.172623,-0.0868 0.256488,-0.13467 0.649451,-0.37071 1.295521,-0.74732 1.943285,-1.120967 0.4509,-0.30689 0.854696,-0.650993 1.119579,-1.139062 0.304294,-0.577667 0.515638,-1.2041 0.607332,-1.852007 0,0 -1.777344,0.883402 -1.777344,0.883402 z" />
    <path
       style="opacity:1;fill:#000000;fill-opacity:0.989822;stroke:#000000;stroke-width:0.964999;stroke-linecap:round;stroke-miterlimit:4;stroke-dasharray:none;stroke-opacity:1"
       id="path987"
       d="m 88.320308,99.54457 c -0.13066,0.47801 -0.269553,0.96682 -0.511863,1.40156 -0.23707,0.36476 -0.581875,0.64413 -0.937107,0.88808 2.989085,-1.58637 1.224188,-0.7575 0.527016,-0.38973 -0.610984,0.35507 -1.221968,0.71013 -1.832949,1.06519 -0.04095,0.0251 -0.164454,0.0994 -0.122854,0.0754 0.528876,-0.30562 1.057302,-0.61203 1.584714,-0.92018 0.07535,-0.044 -0.155287,0.0798 -0.231031,0.12315 -0.604018,0.34559 -1.20667,0.69356 -1.810004,1.04034 -0.03854,0.0252 -0.155568,0.0986 -0.115629,0.0757 0.525757,-0.30209 2.10203,-1.20996 1.573255,-0.91319 -0.50251,0.28202 -1.634196,0.78706 -2.211514,1.36579 -0.225388,0.1655 -0.432464,0.32117 -0.564481,0.57329 -0.118943,0.22577 -0.254524,0.43639 -0.324702,0.68375 -0.04041,0.16064 -0.03527,0.32526 -0.08172,0.48381 0,0 1.792682,-0.86505 1.792682,-0.86505 v 0 c 0.02463,-0.15544 0.03754,-0.31399 0.09099,-0.46325 0.09195,-0.22379 0.220617,-0.43183 0.344183,-0.63923 0.165746,-0.20544 0.387676,-0.34502 0.581136,-0.52228 0.127445,-0.10009 0.121571,-0.10027 0.260726,-0.18959 0.0446,-0.0286 0.181803,-0.10899 0.135826,-0.0826 -3.304947,1.89475 -0.740248,0.44211 0.375566,-0.22295 -5.294961,3.02732 4.247914,-2.40219 -0.989875,0.57282 0.969253,-0.501 1.965867,-0.90866 2.855714,-1.5784 0.353986,-0.27113 0.693489,-0.57291 0.901472,-0.97488 0.213426,-0.46581 0.368647,-0.957598 0.496086,-1.453358 0,0 -1.78563,0.865858 -1.78563,0.865858 z" />
    <path
       style="opacity:1;fill:#000000;fill-opacity:0.989822;stroke:#000000;stroke-width:0.964999;stroke-linecap:round;stroke-miterlimit:4;stroke-dasharray:none;stroke-opacity:1"
       id="path989"
       d="m 94.64282,100.37296 c 0.266652,0.41396 0.513352,0.84373 0.687376,1.3053 0.159862,0.40113 -0.0543,0.70342 -0.307797,1.00104 -0.241755,0.2715 -0.536731,0.48466 -0.818968,0.71095 -0.25886,0.21479 -0.327641,0.35066 -0.465621,0.64235 -0.110459,0.25546 -0.289981,0.45225 -0.480365,0.65052 -0.184166,0.20319 -0.251039,0.47715 -0.419698,0.68977 -0.143467,0.24154 -0.199546,0.52255 -0.284363,0.78794 -0.06138,0.2141 -0.03307,0.10686 -0.08502,0.32168 0,0 1.790226,-0.85655 1.790226,-0.85655 v 0 c 0.05568,-0.20715 0.02611,-0.10301 0.0889,-0.31235 0.07722,-0.2569 0.156395,-0.51819 0.313928,-0.73926 0.127442,-0.22941 0.238472,-0.47132 0.42745,-0.65882 0.188267,-0.21353 0.344424,-0.44314 0.460762,-0.70432 0.116871,-0.22982 0.294716,-0.40046 0.496257,-0.55997 0.285954,-0.22661 0.567492,-0.46327 0.793798,-0.75183 0.25777,-0.36561 0.403897,-0.74761 0.219273,-1.18475 -0.190145,-0.47051 -0.449281,-0.907065 -0.704992,-1.344385 0,0 -1.711145,1.002685 -1.711146,1.002685 z" />
    <path
       style="opacity:1;fill:#000000;fill-opacity:0.989822;stroke:#000000;stroke-width:0.991791;stroke-linecap:round;stroke-miterlimit:4;stroke-dasharray:none;stroke-opacity:1"
       id="path991"
       d="m 101.38942,99.645065 c 0.26673,0.517235 0.5171,1.042395 0.84876,1.524115 0.1991,0.27522 0.42441,0.52303 0.5704,0.83037 0.0919,0.26397 0.22081,0.51358 0.34121,0.76601 0.13672,0.26453 -0.27368,-0.13125 0,0 -0.30025,-0.58456 0.64664,0.69862 2.18099,-0.53756 0.0474,-0.0382 -0.12331,0.001 -0.18468,0.006 -0.2449,0.0204 -0.47362,0.0834 -0.7082,0.15088 -0.57517,0.21549 -1.1571,0.4137 -1.73347,0.62635 -0.93452,0.37562 -1.79263,0.94374 -2.65099,1.44151 -0.134429,0.0779 -0.140683,0.0943 -0.248754,0.19473 -0.174636,0.21415 -0.189709,0.48362 -0.201727,0.74553 0.01386,0.24221 -0.10829,0.45542 -0.177659,0.68098 -0.03711,0.1288 -0.05347,0.26138 -0.06994,0.39371 0.70488,0.67879 1.40204,1.26883 1.86024,-0.88917 v 0 c 0.0214,-0.12276 0.0433,-0.24552 0.0857,-0.36354 0.0836,-0.23618 0.16472,-0.47053 0.15553,-0.72475 0.0227,-0.23295 1.15168,-0.7301 1.3549,-0.88026 0.57496,-0.41266 0.32914,-0.53655 -2.43629,0.99786 -0.0681,0.0378 0.13593,-0.0757 0.20383,-0.11364 0.32546,-0.18196 0.1475,-0.0932 0.51237,-0.25305 0.57097,-0.21781 1.15536,-0.39832 1.72009,-0.63117 0.19033,-0.0636 0.27697,-0.0976 0.46935,-0.14356 0.6602,-0.15789 3.09191,-0.24922 2.2009,-1.22129 -0.25772,-0.0621 -0.41224,-0.24288 -0.52934,-0.46924 -0.11652,-0.25494 -0.24632,-0.50453 -0.34243,-0.76781 -0.15418,-0.31776 -0.37796,-0.57661 -0.59847,-0.85243 -0.33861,-0.47009 -0.58621,-0.992103 -0.82936,-1.513512 l -1.79293,1.002543 z"
       sodipodi:nodetypes="cccccscccccccccscccsccccccccccc" />
    <path
       style="opacity:1;fill:#000000;fill-opacity:0.989822;stroke:#000000;stroke-width:0.964999;stroke-linecap:round;stroke-miterlimit:4;stroke-dasharray:none;stroke-opacity:1"
       id="path993"
       d="m 107.95774,99.110479 c 0.46696,0.262234 0.91017,0.563967 1.3648,0.846937 0.33292,0.168544 0.60993,0.414264 0.89441,0.650204 0.28658,0.25661 0.51642,0.56946 0.76658,0.86054 0.24912,0.25629 0.47262,0.50963 0.58236,0.85329 0.0422,0.32114 0.11377,0.6088 0.29895,0.87771 0.18007,0.21326 0.39173,0.38904 0.63602,0.52281 0.29042,0.15084 0.558,0.33993 0.8507,0.48776 0,0 1.65512,-1.09351 1.65512,-1.09351 v 0 c -0.29971,-0.1339 -0.56387,-0.32403 -0.84497,-0.48827 -0.22895,-0.0992 -0.41389,-0.25685 -0.58482,-0.43701 -0.17768,-0.24998 -0.21054,-0.53251 -0.27335,-0.82711 -0.13151,-0.37434 -0.34641,-0.63783 -0.62438,-0.91762 -0.25869,-0.29897 -0.49557,-0.619284 -0.78116,-0.893072 -0.29667,-0.234466 -0.56811,-0.504458 -0.91689,-0.665335 -0.45673,-0.282517 -0.90926,-0.570394 -1.36099,-0.860793 0,0 -1.66238,1.083469 -1.66238,1.083469 z" />
    <path
       style="opacity:1;fill:#000000;fill-opacity:0.989822;stroke:#000000;stroke-width:0.885922;stroke-linecap:round;stroke-miterlimit:4;stroke-dasharray:none;stroke-opacity:1"
       id="path995"
       d="m 113.86164,97.325288 c 0.48646,0.352438 0.88782,0.763172 1.26118,1.20508 0.3397,0.385819 0.6181,0.805246 0.90967,1.218353 0.18061,0.343799 0.51544,0.542219 0.88823,0.711489 0.39975,0.17745 0.82961,0.29611 1.25173,0.42598 0.46269,0.16147 0.92149,0.33238 1.38159,0.49995 0.23569,0.0894 0.47859,0.1615 0.72299,0.22993 0,0 1.60454,-0.95505 1.60454,-0.95505 v 0 c -0.24338,-0.0599 -0.48524,-0.12404 -0.718,-0.21145 -0.46099,-0.17014 -0.92235,-0.33958 -1.38022,-0.514749 -0.41886,-0.12075 -0.84199,-0.24123 -1.2405,-0.40648 -0.35174,-0.141295 -0.65883,-0.318572 -0.83015,-0.632075 -0.30004,-0.413618 -0.58989,-0.832238 -0.92849,-1.223663 -0.19638,-0.233313 -0.38716,-0.469951 -0.61502,-0.681392 -0.18812,-0.174572 -0.27419,-0.226929 -0.46556,-0.392326 -0.0611,-0.05275 -0.11858,-0.108475 -0.17786,-0.162712 0,0 -1.66413,0.889115 -1.66413,0.889115 z" />
    <path
       style="fill:none;stroke:#000000;stroke-width:0.465;stroke-linecap:butt;stroke-linejoin:miter;stroke-miterlimit:4;stroke-dasharray:none;stroke-opacity:1"
       d="m 117.26711,65.86235 c 0,0 -1.52734,-7.51205 -4.8192,-10.77232 -2.44671,-2.423236 -7.18154,-4.724704 -7.18154,-4.724704"
       id="path997"
       sodipodi:nodetypes="csc" />
    <path
       style="fill:none;stroke:#000000;stroke-width:0.465;stroke-linecap:butt;stroke-linejoin:miter;stroke-miterlimit:4;stroke-dasharray:none;stroke-opacity:1"
       d="m 117.26711,65.86235 c 0,0 2.25149,-7.555297 4.63021,-10.583333 1.95752,-2.491868 7.55953,-5.764136 7.55953,-5.764136"
       id="path999"
       sodipodi:nodetypes="csc" />
    <ellipse
       style="opacity:1;fill:#ffd42a;fill-opacity:0.989822;stroke:#000000;stroke-width:0.25;stroke-linecap:round;stroke-miterlimit:4;stroke-dasharray:none;stroke-opacity:1"
       id="path1001"
       cx="104.93565"
       cy="49.987347"
       rx="0.99218786"
       ry="0.85044569" />
    <ellipse
       style="opacity:1;fill:#ffd42a;fill-opacity:0.989822;stroke:#000000;stroke-width:0.25;stroke-linecap:round;stroke-miterlimit:4;stroke-dasharray:none;stroke-opacity:1"
       id="path1003"
       cx="130.2128"
       cy="49.2314"
       rx="0.99924541"
       ry="0.90474904" />
    <text
       xml:space="preserve"
       style="font-style:normal;font-variant:normal;font-weight:bold;font-stretch:normal;font-size:4.9389px;line-height:1.25;font-family:'Comic Sans MS';-inkscape-font-specification:'Comic Sans MS, Bold';font-variant-ligatures:normal;font-variant-caps:normal;font-variant-numeric:normal;font-variant-east-asian:normal;stroke-width:0.264583"
       x="132.48065"
       y="69.547623"
       id="text1007"><tspan
         sodipodi:role="line"
         id="tspan1005"
         x="132.48065"
         y="69.547623"
         style="font-style:normal;font-variant:normal;font-weight:bold;font-stretch:normal;font-size:4.9389px;font-family:'Comic Sans MS';-inkscape-font-specification:'Comic Sans MS, Bold';font-variant-ligatures:normal;font-variant-caps:normal;font-variant-numeric:normal;font-variant-east-asian:normal;stroke-width:0.264583">Z</tspan></text>
    <text
       id="text1011"
       y="75.500748"
       x="129.92931"
       style="font-style:normal;font-variant:normal;font-weight:bold;font-stretch:normal;font-size:4.9389px;line-height:1.25;font-family:'Comic Sans MS';-inkscape-font-specification:'Comic Sans MS, Bold';font-variant-ligatures:normal;font-variant-caps:normal;font-variant-numeric:normal;font-variant-east-asian:normal;stroke-width:0.264583"
       xml:space="preserve"><tspan
         style="font-style:normal;font-variant:normal;font-weight:bold;font-stretch:normal;font-size:4.9389px;font-family:'Comic Sans MS';-inkscape-font-specification:'Comic Sans MS, Bold';font-variant-ligatures:normal;font-variant-caps:normal;font-variant-numeric:normal;font-variant-east-asian:normal;stroke-width:0.264583"
         y="75.500748"
         x="129.92931"
         id="tspan1009"
         sodipodi:role="line">Z</tspan></text>
    <text
       xml:space="preserve"
       style="font-style:normal;font-variant:normal;font-weight:bold;font-stretch:normal;font-size:4.9389px;line-height:1.25;font-family:'Comic Sans MS';-inkscape-font-specification:'Comic Sans MS, Bold';font-variant-ligatures:normal;font-variant-caps:normal;font-variant-numeric:normal;font-variant-east-asian:normal;stroke-width:0.264583"
       x="132.48065"
       y="81.54837"
       id="text1015"><tspan
         sodipodi:role="line"
         id="tspan1013"
         x="132.48065"
         y="81.54837"
         style="font-style:normal;font-variant:normal;font-weight:bold;font-stretch:normal;font-size:4.9389px;font-family:'Comic Sans MS';-inkscape-font-specification:'Comic Sans MS, Bold';font-variant-ligatures:normal;font-variant-caps:normal;font-variant-numeric:normal;font-variant-east-asian:normal;stroke-width:0.264583">Z</tspan></text>
    <text
       id="text1019"
       y="83.910721"
       x="127.75595"
       style="font-style:normal;font-variant:normal;font-weight:bold;font-stretch:normal;font-size:4.9389px;line-height:1.25;font-family:'Comic Sans MS';-inkscape-font-specification:'Comic Sans MS, Bold';font-variant-ligatures:normal;font-variant-caps:normal;font-variant-numeric:normal;font-variant-east-asian:normal;stroke-width:0.264583"
       xml:space="preserve"><tspan
         style="font-style:normal;font-variant:normal;font-weight:bold;font-stretch:normal;font-size:4.9389px;font-family:'Comic Sans MS';-inkscape-font-specification:'Comic Sans MS, Bold';font-variant-ligatures:normal;font-variant-caps:normal;font-variant-numeric:normal;font-variant-east-asian:normal;stroke-width:0.264583"
         y="83.910721"
         x="127.75595"
         id="tspan1017"
         sodipodi:role="line">Z</tspan></text>
  </g>
</svg>
